REM DIRINDEX 1\2\4\8,1\2\4\9,1\2\4\10,1\2\5\11,1\2\5\12,1\2\5\13,1\2\5\14,1\2\5\15,1\3\6\16,1\3\6\17,1\3\6\18,1\3\7\19,1\3\7\20,1\3\7\21,1\3\7\22,1\3\7\23
REM DIRNAME "folder01","folder02","folder03","folder04","folder05","folder06","folder07","folder08","folder09","folder10","folder11","folder12","folder13","folder14","folder15","folder16","folder17","folder18","folder19","folder20","folder21","folder22","folder23"
TITLE ""
FILE "LR_black_phrase_E_S01.mp3" MP3
  TRACK 01 AUDIO
    TITLE "0:"
    INDEX 01 00:00:00
  TRACK 02 AUDIO
    TITLE "16:cjc171_10401"
    INDEX 01 00:00:14
  TRACK 03 AUDIO
    TITLE "0:"
    INDEX 01 00:01:18
  TRACK 04 AUDIO
    TITLE "17:cjc171_10402"
    INDEX 01 00:01:49
  TRACK 05 AUDIO
    TITLE "0:"
    INDEX 01 00:03:38
  TRACK 06 AUDIO
    TITLE "18:cjc171_10403"
    INDEX 01 00:04:22
  TRACK 07 AUDIO
    TITLE "0:"
    INDEX 01 00:06:09
  TRACK 08 AUDIO
    TITLE "16:cjc171_10404"
    INDEX 01 00:07:12
  TRACK 09 AUDIO
    TITLE "0:"
    INDEX 01 00:08:27
  TRACK 10 AUDIO
    TITLE "17:cjc171_10405"
    INDEX 01 00:08:61
  TRACK 11 AUDIO
    TITLE "0:"
    INDEX 01 00:10:38
  TRACK 12 AUDIO
    TITLE "18:cjc171_10406"
    INDEX 01 00:11:18
  TRACK 13 AUDIO
    TITLE "0:"
    INDEX 01 00:12:74
  TRACK 14 AUDIO
    TITLE "16:cjc171_10407"
    INDEX 01 00:14:03
  TRACK 15 AUDIO
    TITLE "0:"
    INDEX 01 00:15:39
  TRACK 16 AUDIO
    TITLE "17:cjc171_10408"
    INDEX 01 00:15:65
  TRACK 17 AUDIO
    TITLE "0:"
    INDEX 01 00:18:00
  TRACK 18 AUDIO
    TITLE "18:cjc171_10409"
    INDEX 01 00:18:47
  TRACK 19 AUDIO
    TITLE "0:"
    INDEX 01 00:20:58
  TRACK 20 AUDIO
    TITLE "16:cjc171_10410"
    INDEX 01 00:21:58
  TRACK 21 AUDIO
    TITLE "0:"
    INDEX 01 00:23:00
  TRACK 22 AUDIO
    TITLE "17:cjc171_10411"
    INDEX 01 00:23:27
  TRACK 23 AUDIO
    TITLE "0:"
    INDEX 01 00:25:42
  TRACK 24 AUDIO
    TITLE "18:cjc171_10412"
    INDEX 01 00:26:21
  TRACK 25 AUDIO
    TITLE "0:"
    INDEX 01 00:28:36
  TRACK 26 AUDIO
    TITLE "16:cjc171_10413"
    INDEX 01 00:29:43
  TRACK 27 AUDIO
    TITLE "0:"
    INDEX 01 00:30:60
  TRACK 28 AUDIO
    TITLE "17:cjc171_10414"
    INDEX 01 00:31:17
  TRACK 29 AUDIO
    TITLE "0:"
    INDEX 01 00:33:23
  TRACK 30 AUDIO
    TITLE "18:cjc171_10415"
    INDEX 01 00:34:01
  TRACK 31 AUDIO
    TITLE "0:"
    INDEX 01 00:36:08
  TRACK 32 AUDIO
    TITLE "16:cjc171_10416"
    INDEX 01 00:37:11
  TRACK 33 AUDIO
    TITLE "0:"
    INDEX 01 00:38:27
  TRACK 34 AUDIO
    TITLE "17:cjc171_10417"
    INDEX 01 00:38:54
  TRACK 35 AUDIO
    TITLE "0:"
    INDEX 01 00:40:63
  TRACK 36 AUDIO
    TITLE "18:cjc171_10418"
    INDEX 01 00:41:43
  TRACK 37 AUDIO
    TITLE "0:"
    INDEX 01 00:43:49
  TRACK 38 AUDIO
    TITLE "16:cjc171_10419"
    INDEX 01 00:44:49
  TRACK 39 AUDIO
    TITLE "0:"
    INDEX 01 00:46:01
  TRACK 40 AUDIO
    TITLE "17:cjc171_10420"
    INDEX 01 00:46:32
  TRACK 41 AUDIO
    TITLE "0:"
    INDEX 01 00:48:27
  TRACK 42 AUDIO
    TITLE "18:cjc171_10421"
    INDEX 01 00:49:11
  TRACK 43 AUDIO
    TITLE "0:"
    INDEX 01 00:51:06
  TRACK 44 AUDIO
    TITLE "16:cjc171_10422"
    INDEX 01 00:52:09
  TRACK 45 AUDIO
    TITLE "0:"
    INDEX 01 00:53:50
  TRACK 46 AUDIO
    TITLE "17:cjc171_10423"
    INDEX 01 00:54:06
  TRACK 47 AUDIO
    TITLE "0:"
    INDEX 01 00:57:49
  TRACK 48 AUDIO
    TITLE "18:cjc171_10424"
    INDEX 01 00:58:27
  TRACK 49 AUDIO
    TITLE "0:"
    INDEX 01 01:01:73
  TRACK 50 AUDIO
    TITLE "16:cjc171_10425"
    INDEX 01 01:02:74
  TRACK 51 AUDIO
    TITLE "0:"
    INDEX 01 01:04:20
  TRACK 52 AUDIO
    TITLE "17:cjc171_10426"
    INDEX 01 01:04:51
  TRACK 53 AUDIO
    TITLE "0:"
    INDEX 01 01:07:60
  TRACK 54 AUDIO
    TITLE "18:cjc171_10427"
    INDEX 01 01:08:39
  TRACK 55 AUDIO
    TITLE "0:"
    INDEX 01 01:11:48
  TRACK 56 AUDIO
    TITLE "16:cjc171_10428"
    INDEX 01 01:12:51
  TRACK 57 AUDIO
    TITLE "0:"
    INDEX 01 01:14:03
  TRACK 58 AUDIO
    TITLE "17:cjc171_10429"
    INDEX 01 01:14:32
  TRACK 59 AUDIO
    TITLE "0:"
    INDEX 01 01:17:17
  TRACK 60 AUDIO
    TITLE "18:cjc171_10430"
    INDEX 01 01:18:01
  TRACK 61 AUDIO
    TITLE "0:"
    INDEX 01 01:20:56
  TRACK 62 AUDIO
    TITLE "16:cjc171_10431"
    INDEX 01 01:21:64
  TRACK 63 AUDIO
    TITLE "0:"
    INDEX 01 01:23:16
  TRACK 64 AUDIO
    TITLE "17:cjc171_10432"
    INDEX 01 01:23:41
  TRACK 65 AUDIO
    TITLE "0:"
    INDEX 01 01:26:53
  TRACK 66 AUDIO
    TITLE "18:cjc171_10433"
    INDEX 01 01:27:31
  TRACK 67 AUDIO
    TITLE "0:"
    INDEX 01 01:30:39
  TRACK 68 AUDIO
    TITLE "16:cjc171_10434"
    INDEX 01 01:31:42
  TRACK 69 AUDIO
    TITLE "0:"
    INDEX 01 01:32:58
  TRACK 70 AUDIO
    TITLE "17:cjc171_10435"
    INDEX 01 01:33:12
  TRACK 71 AUDIO
    TITLE "0:"
    INDEX 01 01:35:54
  TRACK 72 AUDIO
    TITLE "18:cjc171_10436"
    INDEX 01 01:36:34
  TRACK 73 AUDIO
    TITLE "0:"
    INDEX 01 01:39:03
  TRACK 74 AUDIO
    TITLE "16:cjc171_10437"
    INDEX 01 01:40:06
  TRACK 75 AUDIO
    TITLE "0:"
    INDEX 01 01:41:37
  TRACK 76 AUDIO
    TITLE "17:cjc171_10438"
    INDEX 01 01:41:66
  TRACK 77 AUDIO
    TITLE "0:"
    INDEX 01 01:44:69
  TRACK 78 AUDIO
    TITLE "18:cjc171_10439"
    INDEX 01 01:45:45
  TRACK 79 AUDIO
    TITLE "0:"
    INDEX 01 01:48:45
  TRACK 80 AUDIO
    TITLE "16:cjc171_10440"
    INDEX 01 01:49:48
  TRACK 81 AUDIO
    TITLE "0:"
    INDEX 01 01:51:24
  TRACK 82 AUDIO
    TITLE "17:cjc171_10441"
    INDEX 01 01:51:55
  TRACK 83 AUDIO
    TITLE "0:"
    INDEX 01 01:54:08
  TRACK 84 AUDIO
    TITLE "18:cjc171_10442"
    INDEX 01 01:54:63
  TRACK 85 AUDIO
    TITLE "0:"
    INDEX 01 01:57:14
  TRACK 86 AUDIO
    TITLE "16:cjc171_10443"
    INDEX 01 01:58:20
  TRACK 87 AUDIO
    TITLE "0:"
    INDEX 01 01:59:35
  TRACK 88 AUDIO
    TITLE "17:cjc171_10444"
    INDEX 01 01:59:66
  TRACK 89 AUDIO
    TITLE "0:"
    INDEX 01 02:01:65
  TRACK 90 AUDIO
    TITLE "18:cjc171_10445"
    INDEX 01 02:02:47
  TRACK 91 AUDIO
    TITLE "0:"
    INDEX 01 02:04:46
  TRACK 92 AUDIO
    TITLE "16:cjc171_10446"
    INDEX 01 02:05:49
  TRACK 93 AUDIO
    TITLE "0:"
    INDEX 01 02:07:09
  TRACK 94 AUDIO
    TITLE "17:cjc171_10447"
    INDEX 01 02:07:40
  TRACK 95 AUDIO
    TITLE "0:"
    INDEX 01 02:10:60
  TRACK 96 AUDIO
    TITLE "18:cjc171_10448"
    INDEX 01 02:11:40
  TRACK 97 AUDIO
    TITLE "0:"
    INDEX 01 02:14:60
  TRACK 98 AUDIO
    TITLE "16:cjc171_10449"
    INDEX 01 02:15:67
  TRACK 99 AUDIO
    TITLE "0:"
    INDEX 01 02:17:09
  TRACK 100 AUDIO
    TITLE "17:cjc171_10450"
    INDEX 01 02:17:39
  TRACK 101 AUDIO
    TITLE "0:"
    INDEX 01 02:19:55
  TRACK 102 AUDIO
    TITLE "18:cjc171_10451"
    INDEX 01 02:20:37
  TRACK 103 AUDIO
    TITLE "0:"
    INDEX 01 02:22:54
  TRACK 104 AUDIO
    TITLE "16:cjc171_10452"
    INDEX 01 02:23:57
  TRACK 105 AUDIO
    TITLE "0:"
    INDEX 01 02:25:09
  TRACK 106 AUDIO
    TITLE "17:cjc171_10453"
    INDEX 01 02:25:42
  TRACK 107 AUDIO
    TITLE "0:"
    INDEX 01 02:27:39
  TRACK 108 AUDIO
    TITLE "18:cjc171_10454"
    INDEX 01 02:28:19
  TRACK 109 AUDIO
    TITLE "0:"
    INDEX 01 02:30:20
  TRACK 110 AUDIO
    TITLE "16:cjc171_10455"
    INDEX 01 02:31:25
  TRACK 111 AUDIO
    TITLE "0:"
    INDEX 01 02:32:42
  TRACK 112 AUDIO
    TITLE "17:cjc171_10456"
    INDEX 01 02:32:70
  TRACK 113 AUDIO
    TITLE "0:"
    INDEX 01 02:35:17
  TRACK 114 AUDIO
    TITLE "18:cjc171_10457"
    INDEX 01 02:35:70
  TRACK 115 AUDIO
    TITLE "0:"
    INDEX 01 02:38:15
  TRACK 116 AUDIO
    TITLE "16:cjc171_10458"
    INDEX 01 02:39:19
  TRACK 117 AUDIO
    TITLE "0:"
    INDEX 01 02:40:40
  TRACK 118 AUDIO
    TITLE "17:cjc171_10459"
    INDEX 01 02:40:57
  TRACK 119 AUDIO
    TITLE "0:"
    INDEX 01 02:43:18
  TRACK 120 AUDIO
    TITLE "18:cjc171_10460"
    INDEX 01 02:43:65
  TRACK 121 AUDIO
    TITLE "0:"
    INDEX 01 02:46:25
